<?xml version="1.0" encoding="UTF-8"?>
<svg width="295" height="101" viewBox="0 0 295 101" fill="none" xmlns="http://www.w3.org/2000/svg">
<path d="M83.1118 51.6968V30.8191H88.6969V47.1755H96.6756V51.6968H83.1118Z" fill="#666666"/>
<path d="M118.75 51.6968H106.383V30.8191H118.75V35.3404H111.968V38.6649H118.351V43.1861H112.101V47.1755H118.883V51.6968H118.75Z" fill="#666666"/>
<path d="M140.426 30.8191H146.676L139.894 51.6968H133.245L126.463 30.8191H132.846L135.638 41.4574C136.17 43.851 136.569 45.4468 136.569 46.3776C136.569 45.7127 136.835 44.9149 136.968 43.851C137.234 42.7872 137.367 42.1223 137.5 41.4574L140.426 30.8191Z" fill="#666666"/>
<path d="M155.319 51.6968V30.8191H161.037V51.6968H155.319Z" fill="#666666"/>
<path d="M180.984 51.6968H175.399V35.4734H170.213V30.8191H186.037V35.4734H180.984V51.6968Z" fill="#666666"/>
<path d="M208.112 51.6968L207.048 47.8404H200.266L199.202 51.6968H192.952L199.734 30.6862H207.314L214.229 51.6968H208.112ZM205.851 43.1862L204.92 39.7287C204.654 38.9308 204.521 38 204.122 36.8032C203.856 35.6064 203.59 34.6755 203.59 34.1436C203.457 34.6755 203.324 35.4734 203.059 36.5372C202.793 37.6011 202.261 39.8617 201.33 43.1862H205.851Z" fill="#666666"/>
<path d="M231.915 51.6968H226.33V35.4734H221.277V30.8191H237.101V35.4734H232.048V51.6968H231.915Z" fill="#666666"/>
<path d="M258.644 51.6968H246.277V30.8191H258.644V35.3404H251.862V38.6649H258.112V43.1861H251.862V47.1755H258.644V51.6968Z" fill="#666666"/>
<path d="M135.239 61.4043H133.91V73.7713H135.239V61.4043Z" fill="#512DA8"/>
<path d="M193.484 61.4043H192.154V73.7713H193.484V61.4043Z" fill="#689F38"/>
<path fill-rule="evenodd" clip-rule="evenodd" d="M89.4946 72.5745H83.2446V62.2021H84.9734V71.1117H89.4946V72.5745Z" fill="#666666"/>
<path fill-rule="evenodd" clip-rule="evenodd" d="M92.9519 65.6596C93.6167 64.8617 94.5476 64.5958 95.6114 64.5958C96.6753 64.5958 97.4731 64.9947 98.005 65.5266C98.6699 66.1915 98.9359 66.9894 98.9359 68.0532V68.9841H93.7497C93.7497 69.7819 94.0157 70.4468 94.4146 70.8458C94.8136 71.2447 95.3455 71.3777 96.0104 71.3777L97.3401 71.2447L98.6699 70.7128V72.3085L97.4731 72.7075L96.0104 72.8404C94.8135 72.8404 93.8827 72.4415 93.0848 71.7766C92.4199 71.1117 92.021 70.0479 92.021 68.8511C92.021 67.5213 92.287 66.4575 92.9519 65.6596ZM97.3401 67.9202C97.3401 67.2553 97.0742 66.7234 96.8082 66.4575C96.5423 66.0585 96.0104 65.9256 95.6114 65.9256C95.0795 65.9256 94.6806 66.1915 94.2816 66.4575C94.0157 66.8564 93.8827 67.2553 93.7497 67.9202H97.3401Z" fill="#666666"/>
<path fill-rule="evenodd" clip-rule="evenodd" d="M103.191 71.2447C103.457 71.3777 103.723 71.5106 104.122 71.5106C104.787 71.5106 105.319 71.3777 105.585 70.9787C105.984 70.7128 106.117 70.1809 106.117 69.516V68.8511L105.053 68.984C104.255 68.984 103.723 69.117 103.324 69.383C103.058 69.6489 102.793 69.9149 102.793 70.4468L103.191 71.2447ZM101.862 72.1755C101.463 71.7766 101.197 71.1117 101.197 70.3138C101.197 69.516 101.463 68.8511 102.128 68.4521C102.793 67.9202 103.723 67.7872 104.787 67.7872L106.25 67.6543V67.2553C106.25 66.7234 106.117 66.3245 105.851 66.1915C105.585 65.9255 105.186 65.7926 104.787 65.7926L103.59 66.0585L102.527 66.4574L101.995 65.2606L103.457 64.7287L104.92 64.4628C105.984 64.4628 106.782 64.7287 107.181 65.1277C107.713 65.6596 107.979 66.3245 107.979 67.2553V72.5745H106.782L106.383 71.5106H106.25C105.851 72.0426 105.452 72.3085 105.186 72.4415L103.59 72.7075C102.793 72.8404 102.261 72.5745 101.862 72.1755Z" fill="#666666"/>
<path fill-rule="evenodd" clip-rule="evenodd" d="M112.766 66.0585L113.83 64.9947C114.229 64.7287 114.628 64.5958 115.159 64.5958L115.957 64.7287L115.824 66.3245L115.026 66.1915C114.362 66.1915 113.83 66.4575 113.431 66.8564C113.032 67.2553 112.766 67.7873 112.766 68.5851V72.7075H111.037V64.8617H112.367L112.766 66.0585Z" fill="#666666"/>
<path fill-rule="evenodd" clip-rule="evenodd" d="M124.335 67.7873C124.335 67.1224 124.202 66.7234 123.936 66.3245C123.67 66.0585 123.271 65.9256 122.739 65.9256C122.074 65.9256 121.542 66.1915 121.143 66.5904C120.877 66.9894 120.612 67.6543 120.612 68.7181V72.5745H118.883V64.7287H120.213L120.479 65.7926H120.612C120.877 65.3936 121.143 65.1277 121.675 64.8617L123.138 64.5958C125 64.5958 125.931 65.5266 125.931 67.5213V72.5745H124.202V67.7873H124.335Z" fill="#666666"/>
<path fill-rule="evenodd" clip-rule="evenodd" d="M151.729 62.6011L151.197 64.0638C150.399 63.6649 149.468 63.3989 148.537 63.3989C147.474 63.3989 146.543 63.7979 145.878 64.5957C145.213 65.2606 144.947 66.1915 144.947 67.3883C144.947 68.7181 145.213 69.6489 145.878 70.3138C146.543 70.9787 147.341 71.3776 148.404 71.3776L150.266 71.2447V68.5851H148.006V66.9894H151.862V72.3085L150 72.7074L148.138 72.8404C146.543 72.8404 145.346 72.4415 144.415 71.3776C143.617 70.4468 143.218 69.117 143.218 67.5213C143.218 65.7925 143.75 64.4628 144.681 63.5319C145.612 62.6011 146.942 62.0691 148.67 62.0691C149.734 61.9362 150.798 62.2021 151.729 62.6011Z" fill="#666666"/>
<path fill-rule="evenodd" clip-rule="evenodd" d="M155.452 72.5744V64.7287H156.782L157.048 66.1915H157.181L158.245 65.1276C158.644 64.8617 159.043 64.7287 159.574 64.7287L160.372 64.8617L160.239 66.4574L159.442 66.3244C158.777 66.3244 158.245 66.5904 157.846 66.9893C157.447 67.3883 157.181 67.9202 157.181 68.7181V72.8404H155.452V72.5744Z" fill="#666666"/>
<path fill-rule="evenodd" clip-rule="evenodd" d="M166.49 65.9255C165.692 65.9255 165.293 66.1915 164.894 66.5904C164.628 67.1223 164.362 67.7872 164.362 68.5851C164.362 70.4468 165.027 71.2447 166.357 71.2447C167.686 71.2447 168.351 70.3138 168.351 68.5851C168.484 66.8564 167.819 65.9255 166.49 65.9255ZM166.49 64.5957C167.554 64.5957 168.484 64.9947 169.149 65.6596C169.814 66.4574 170.08 67.3883 170.08 68.7181C170.08 70.0479 169.814 70.9787 169.149 71.7766C168.484 72.4415 167.554 72.8404 166.357 72.8404C165.559 72.8404 164.894 72.7074 164.362 72.3085C163.83 72.0425 163.431 71.5106 163.165 70.8457C162.899 70.1808 162.633 69.5159 162.633 68.7181C162.633 67.3883 163.032 66.4574 163.564 65.6596C164.362 64.9947 165.293 64.5957 166.49 64.5957Z" fill="#666666"/>
<path fill-rule="evenodd" clip-rule="evenodd" d="M182.447 64.7287H184.176L181.915 72.5744H180.053L178.325 66.1915L176.596 72.5744H174.601L172.474 64.7287H174.202L175.665 71.1117L177.394 64.7287H179.256L180.851 71.1117H180.984L182.447 64.7287Z" fill="#666666"/>
<path fill-rule="evenodd" clip-rule="evenodd" d="M204.255 62.2021C205.585 62.2021 206.516 62.4681 207.314 62.867C207.979 63.399 208.245 64.1968 208.245 65.1277C208.245 66.4575 207.58 67.3883 206.117 67.9202L209.176 72.5745H207.181L204.654 68.4521H202.926V72.5745H201.197V62.2021H204.255ZM204.122 63.6649H203.058V66.9894H204.255C205.053 66.9894 205.718 66.8564 205.984 66.5904C206.25 66.3245 206.516 65.7926 206.516 65.2607C206.516 64.7287 206.383 64.3298 205.984 64.0638C205.585 63.7979 204.92 63.6649 204.122 63.6649Z" fill="#666666"/>
<path fill-rule="evenodd" clip-rule="evenodd" d="M216.755 67.9202C216.755 67.2553 216.489 66.7234 216.223 66.4575C215.957 66.0585 215.425 65.9256 215.026 65.9256C214.495 65.9256 214.096 66.1915 213.697 66.4575C213.431 66.8564 213.165 67.2553 213.165 67.9202H216.755ZM212.367 65.6596C213.032 64.8617 213.963 64.5958 215.026 64.5958C216.09 64.5958 216.888 64.9947 217.42 65.5266C218.085 66.1915 218.351 66.9894 218.351 68.0532V68.9841H213.165C213.165 69.7819 213.431 70.4468 213.83 70.8458C214.229 71.2447 214.761 71.3777 215.425 71.3777L216.755 71.2447L218.085 70.7128V72.3085L216.888 72.7075L215.425 72.8404C214.229 72.8404 213.298 72.4415 212.5 71.7766C211.835 71.1117 211.436 70.0479 211.436 68.8511C211.436 67.5213 211.702 66.4575 212.367 65.6596Z" fill="#666666"/>
<path fill-rule="evenodd" clip-rule="evenodd" d="M226.596 68.5851C226.596 67.6543 226.463 67.1223 226.064 66.5904C225.798 66.0585 225.266 65.9255 224.734 65.9255C224.069 65.9255 223.67 66.1915 223.271 66.5904C223.005 66.9894 222.739 67.6543 222.739 68.4521V68.7181C222.739 69.6489 222.872 70.3138 223.271 70.8458C223.537 71.2447 224.069 71.5106 224.734 71.5106C225.266 71.5106 225.798 71.2447 226.064 70.8458C226.463 70.3138 226.596 69.516 226.596 68.5851ZM227.527 65.6596C228.059 66.4575 228.325 67.3883 228.325 68.7181C228.325 70.0479 228.059 71.1117 227.527 71.7766C226.862 72.4415 226.064 72.8404 225.133 72.8404C224.202 72.8404 223.404 72.4415 222.739 71.7766H222.606L222.739 72.9734V76.2979H221.011V64.8617H222.341L222.606 65.9255C223.138 65.1277 223.936 64.7287 225 64.7287C226.197 64.5957 226.995 64.8617 227.527 65.6596Z" fill="#666666"/>
<path fill-rule="evenodd" clip-rule="evenodd" d="M236.702 67.9202C236.702 67.2553 236.436 66.7234 236.17 66.4575C235.904 66.0585 235.372 65.9256 234.973 65.9256C234.441 65.9256 234.042 66.1915 233.643 66.4575C233.377 66.8564 233.112 67.2553 233.112 67.9202H236.702ZM232.314 65.6596C232.979 64.8617 233.909 64.5958 234.973 64.5958C236.037 64.5958 236.835 64.9947 237.367 65.5266C238.032 66.1915 238.298 66.9894 238.298 68.0532V68.9841H233.112C233.112 69.7819 233.377 70.4468 233.776 70.8458C234.175 71.2447 234.707 71.3777 235.372 71.3777L236.702 71.2447L238.032 70.7128V72.3085L236.835 72.7075L235.372 72.8404C234.175 72.8404 233.245 72.4415 232.447 71.7766C231.782 71.1117 231.383 70.0479 231.383 68.8511C231.383 67.5213 231.649 66.4575 232.314 65.6596Z" fill="#666666"/>
<path fill-rule="evenodd" clip-rule="evenodd" d="M242.819 69.383C242.553 69.649 242.287 69.9149 242.287 70.4468L242.553 71.2447C242.819 71.3777 243.085 71.5107 243.484 71.5107C244.149 71.5107 244.681 71.3777 244.947 70.9787C245.345 70.7128 245.478 70.1809 245.478 69.516V68.8511L244.415 68.9841C243.75 68.8511 243.218 68.9841 242.819 69.383ZM245.611 67.7873V67.3883C245.611 66.8564 245.478 66.4575 245.213 66.3245C244.947 66.0585 244.548 65.9256 244.149 65.9256L242.952 66.1915L241.888 66.5904L241.356 65.3936L242.819 64.8617L244.282 64.5958C245.345 64.5958 246.143 64.8617 246.542 65.2607C247.074 65.7926 247.34 66.4575 247.34 67.3883V72.7075H246.143L245.744 71.6436H245.611C245.213 72.1756 244.814 72.4415 244.548 72.5745L242.952 72.8404C242.154 72.8404 241.489 72.7075 241.09 72.3085C240.691 71.9096 240.425 71.2447 240.425 70.4468C240.425 69.649 240.691 68.9841 241.356 68.5851C242.021 68.0532 242.952 67.9202 244.016 67.9202L245.611 67.7873Z" fill="#666666"/>
<path fill-rule="evenodd" clip-rule="evenodd" d="M250.532 70.1809V65.9255H249.468V65.2607L250.665 64.5958L251.197 62.867H252.261V64.5958H254.521V65.7926H252.261V70.0479C252.261 70.4468 252.394 70.7128 252.66 70.9787C252.793 71.1117 253.059 71.2447 253.458 71.2447L254.654 70.9787V72.1755L252.926 72.4415C251.33 72.8404 250.532 72.0426 250.532 70.1809Z" fill="#666666"/>
<path fill-rule="evenodd" clip-rule="evenodd" d="M68.4844 30.6862C68.8833 30.5532 69.2822 30.5532 69.6812 30.8192C70.0801 31.0851 70.3461 31.3511 70.479 31.75C70.612 32.149 70.612 32.5479 70.3461 32.9468L50.7982 66.7234L53.7237 71.6436C53.8567 71.7766 53.8567 71.9096 53.7237 72.0426C53.7237 72.1756 53.5907 72.3085 53.3248 72.3085H47.3407C47.2078 72.3085 47.0748 72.1756 46.9418 72.0426C46.8088 71.9096 46.8088 71.7766 46.9418 71.6436L49.8673 66.7234L31.7822 35.7394C31.7822 35.6064 31.7822 35.4734 31.7822 35.3405C31.7822 35.2075 31.9152 35.2075 32.0482 35.0745C32.1812 35.0745 32.1812 34.9415 32.3141 35.0745C32.4471 35.0745 32.4471 35.2075 32.5801 35.2075L50.2663 65.7926L69.5482 32.6809C69.6812 32.5479 69.6812 32.2819 69.6812 32.016C69.6812 31.75 69.5482 31.617 69.2822 31.4841C69.1493 31.3511 68.8833 31.3511 68.7503 31.3511C68.4844 31.4841 68.3514 31.4841 68.2184 31.75C68.0854 32.016 68.0854 32.149 68.0854 32.4149C68.0854 32.6809 68.2184 32.8139 68.4844 32.9468C68.6173 33.0798 68.6173 33.0798 68.7503 33.2128C68.7503 33.3458 68.7503 33.4787 68.7503 33.4787C68.7503 33.6117 68.6173 33.6117 68.4844 33.6117C68.3514 33.6117 68.2184 33.6117 68.2184 33.6117C67.8195 33.3458 67.5535 33.0798 67.4205 32.6809C67.2876 32.2819 67.2875 31.883 67.5535 31.4841C67.6865 31.0851 67.9524 30.8192 68.4844 30.6862ZM52.5269 71.3777L50.2663 67.3883L48.0056 71.3777H52.5269Z" fill="#512DA8"/>
<path fill-rule="evenodd" clip-rule="evenodd" d="M32.5799 24.8351H32.8458H33.1118C33.3777 24.8351 33.6437 24.9681 33.9096 25.1011C34.1756 25.2341 34.4416 25.367 34.5745 25.633C34.9735 26.0319 35.2394 26.4309 35.5054 26.9628C35.6384 27.2287 35.6384 27.3617 35.6384 27.6277V28.5585V28.6915L35.5054 29.0904L35.3724 29.4894L35.2394 29.7553L35.3724 29.2234L35.5054 28.6915V28.5585V28.4255V27.8936V27.6277C35.5054 27.4947 35.3724 27.2287 35.2394 26.9628C34.9735 26.4309 34.7075 26.0319 34.3086 25.766C34.1756 25.633 33.9096 25.5 33.6437 25.367C33.3777 25.2341 33.1118 25.1011 32.8458 25.1011H32.7128H32.4469H32.1809H32.0479C31.782 25.1011 31.516 25.1011 31.1171 25.2341C30.5852 25.5 30.0533 25.766 29.6543 26.2979C29.2554 26.8298 28.9894 27.3617 28.9894 27.8936C28.9894 28.1596 28.9894 28.4255 28.9894 28.6915C28.9894 28.9575 29.1224 29.2234 29.2554 29.4894L29.3884 29.6223L32.5799 35.0745C32.5799 35.2075 32.7128 35.2075 32.5799 35.3404C32.5799 35.4734 32.4469 35.4734 32.4469 35.6064C32.3139 35.6064 32.3139 35.7394 32.1809 35.6064C32.0479 35.6064 32.0479 35.4734 31.915 35.4734L28.9894 30.2872L28.7235 29.8883C28.5905 29.4894 28.4575 29.2234 28.4575 28.9575C28.4575 28.6915 28.4575 28.2926 28.4575 27.8936C28.5905 27.2287 28.8565 26.5638 29.3884 26.0319C29.7873 25.5 30.3192 25.1011 31.1171 24.9681C31.516 24.8351 31.782 24.8351 32.0479 24.8351H32.1809H32.5799Z" fill="#512DA8"/>
<path fill-rule="evenodd" clip-rule="evenodd" d="M62.367 30.6862C62.766 30.5532 63.1649 30.5532 63.5638 30.8192C63.9628 31.0851 64.2287 31.3511 64.3617 31.75C64.4947 32.149 64.3617 32.5479 64.2287 32.9468L50.7979 56.2181L56.6489 66.4575C56.7819 66.5904 56.7819 66.7234 56.6489 66.8564C56.6489 66.9894 56.516 66.9894 56.383 66.9894H44.2819C44.1489 66.9894 44.016 66.9894 43.883 66.8564C43.75 66.7234 43.75 66.5904 43.883 66.4575L49.867 56.2181L37.8989 35.7394C37.8989 35.6064 37.766 35.4734 37.8989 35.4734C37.8989 35.3404 38.0319 35.3404 38.0319 35.2075C38.1649 35.2075 38.2979 35.0745 38.2979 35.2075C38.4309 35.2075 38.4309 35.3405 38.5638 35.3405L50.266 55.4202L63.4309 32.6809C63.5638 32.5479 63.5638 32.2819 63.5638 32.149C63.5638 31.883 63.4309 31.75 63.1649 31.617C63.0319 31.4841 62.766 31.4841 62.633 31.4841C62.367 31.4841 62.2341 31.617 62.1011 31.883C61.9681 32.016 61.9681 32.2819 61.9681 32.5479C61.9681 32.8139 62.1011 32.9468 62.367 33.0798C62.5 33.0798 62.5 33.2128 62.5 33.3458C62.5 33.4787 62.5 33.6117 62.5 33.6117C62.5 33.7447 62.367 33.7447 62.2341 33.7447C62.1011 33.7447 61.9681 33.7447 61.9681 33.7447C61.5692 33.4787 61.3032 33.2128 61.1702 32.8139C61.0372 32.4149 61.1702 32.016 61.3032 31.617C61.7021 31.0851 61.9681 30.8192 62.367 30.6862ZM44.9468 66.1915H55.5851L50.266 57.016L44.9468 66.1915Z" fill="#1976D2"/>
<path fill-rule="evenodd" clip-rule="evenodd" d="M38.2979 24.8351H38.5639H38.8299H39.0958C39.3618 24.8351 39.6277 24.9681 39.8937 25.1011C40.1596 25.2341 40.4256 25.367 40.5586 25.633C40.9575 26.0319 41.2235 26.4309 41.4894 26.9628C41.6224 27.2287 41.6224 27.3617 41.6224 27.6277V27.8936V28.2926V28.4255V28.5585V28.6915L41.4894 29.0904V29.2234V29.3564L41.2235 30.2872L41.3565 30.0213C41.3565 30.0213 41.3565 30.0213 41.3565 29.8883V29.7553L41.4894 29.3564L41.6224 28.9575V28.8245V28.4255L41.4894 27.7606C41.4894 27.4947 41.3565 27.3617 41.2235 27.0958C41.0905 26.6968 40.6916 26.1649 40.2926 25.8989C40.0267 25.766 39.8937 25.633 39.6277 25.5C39.3618 25.367 39.0958 25.2341 38.8299 25.2341H38.5639H38.2979H38.165C37.899 25.2341 37.6331 25.2341 37.2341 25.367C36.5692 25.633 36.1703 25.8989 35.7713 26.4309C35.3724 26.9628 35.1065 27.4947 35.1065 28.0266C35.1065 28.2926 35.1065 28.5585 35.1065 28.8245C35.1065 29.0904 35.2394 29.3564 35.3724 29.6223L35.5054 29.7553L38.6969 35.2075C38.6969 35.3404 38.8299 35.3404 38.6969 35.4734C38.6969 35.6064 38.5639 35.6064 38.5639 35.7394C38.4309 35.7394 38.2979 35.8723 38.2979 35.7394C38.165 35.7394 38.165 35.6064 38.032 35.6064L35.1065 30.4202L34.9735 30.0213C34.8405 29.7553 34.8405 29.3564 34.7075 29.0904C34.7075 28.6915 34.7075 28.4255 34.7075 28.0266C34.8405 27.3617 35.1065 26.6968 35.5054 26.1649C35.9043 25.633 36.5692 25.2341 37.2341 25.1011C37.6331 24.9681 37.899 24.9681 38.165 24.9681L38.2979 24.8351Z" fill="#1976D2"/>
<path fill-rule="evenodd" clip-rule="evenodd" d="M58.2446 33.0798L50.7977 45.8457L59.7073 61.2713C59.8403 61.4043 59.8403 61.5372 59.7073 61.6702C59.5743 61.8032 59.4414 61.8032 59.3084 61.8032H41.2233C41.0903 61.8032 40.9573 61.8032 40.8243 61.6702C40.6914 61.5372 40.6914 61.4043 40.8243 61.2713L49.7339 45.8457L43.8829 35.7394C43.8829 35.6064 43.8829 35.4734 43.8829 35.4734C43.8829 35.3404 44.0158 35.3404 44.0158 35.2074C44.1488 35.2074 44.2818 35.0745 44.2818 35.2074C44.4148 35.2074 44.4148 35.3404 44.5477 35.3404L50.2658 45.0479L57.4467 32.6809C57.5797 32.5479 57.5797 32.2819 57.5797 32.1489C57.5797 31.883 57.4467 31.75 57.1807 31.617C57.0477 31.484 56.7818 31.484 56.5158 31.484C56.2499 31.484 56.1169 31.617 55.9839 31.883C55.8509 32.016 55.8509 32.2819 55.8509 32.5479C55.8509 32.8138 55.9839 32.9468 56.2499 33.0798C56.3829 33.0798 56.3829 33.2128 56.3829 33.3457C56.3829 33.4787 56.3829 33.6117 56.3829 33.6117C56.3829 33.7447 56.2499 33.7447 56.1169 33.7447C55.9839 33.7447 55.8509 33.7447 55.8509 33.7447C55.452 33.4787 55.186 33.2128 55.0531 32.8138C54.9201 32.4149 55.0531 32.016 55.186 31.617C55.452 31.2181 55.718 30.9521 56.1169 30.8192C56.5158 30.6862 56.9148 30.8192 57.3137 30.9521C57.7126 31.2181 57.9786 31.484 58.1116 31.883C58.5105 32.2819 58.3775 32.6809 58.2446 33.0798ZM42.0212 61.0053H58.6435L50.2658 46.6436L42.0212 61.0053Z" fill="#00796B"/>
<path fill-rule="evenodd" clip-rule="evenodd" d="M44.2818 24.8351H44.5478H44.8137H45.0797C45.3457 24.8351 45.6116 24.9681 45.8776 25.1011C46.1435 25.2341 46.4095 25.367 46.5425 25.633C46.9414 26.0319 47.2074 26.4309 47.4733 26.9628C47.6063 27.2287 47.6063 27.3617 47.7393 27.6277V28.2926V28.5585V28.6915V28.8245L47.6063 29.4894L47.4733 29.7553L47.3403 30.0213L47.6063 29.3564V29.2234L47.7393 28.6915V28.5585V28.4255V28.1596C47.7393 28.0266 47.7393 28.0266 47.7393 27.8936C47.7393 27.6277 47.6063 27.4947 47.4733 27.2287C47.2074 26.6968 46.9414 26.2979 46.5425 26.0319C46.2765 25.8989 46.1435 25.766 45.8776 25.633C45.6116 25.5 45.3457 25.367 45.0797 25.367H44.8137H44.6808H44.4148H44.2818C44.0159 25.367 43.7499 25.367 43.351 25.5C42.8191 25.766 42.2872 26.0319 41.8882 26.5638C41.4893 27.0958 41.2233 27.6277 41.2233 28.1596C41.2233 28.4255 41.2233 28.6915 41.2233 28.9575C41.2233 29.2234 41.3563 29.4894 41.4893 29.7553L44.8137 35.3404C44.8137 35.4734 44.8137 35.4734 44.8137 35.6064C44.8137 35.7394 44.6808 35.7394 44.6808 35.8723C44.5478 35.8723 44.5478 36.0053 44.4148 35.8723C44.2818 35.8723 44.2818 35.7394 44.1489 35.7394L41.2233 30.5532L40.9574 30.1543C40.8244 29.8883 40.8244 29.4894 40.6914 29.2234C40.6914 28.9575 40.6914 28.5585 40.6914 28.1596C40.8244 27.4947 41.0903 26.8298 41.4893 26.2979C41.8882 25.766 42.5531 25.367 43.218 25.2341C43.6169 25.1011 43.8829 25.1011 44.1489 25.1011L44.2818 24.8351Z" fill="#00796B"/>
<path fill-rule="evenodd" clip-rule="evenodd" d="M53.4577 29.8883L53.5907 29.4894L53.7237 29.0904V28.8245V28.6915V28.5585V28.4255L53.5907 27.7606C53.5907 27.6277 53.4577 27.3617 53.3247 27.0957C53.0588 26.5638 52.7928 26.1649 52.3939 25.8989C52.2609 25.766 51.9949 25.633 51.729 25.5C51.463 25.367 51.1971 25.234 50.9311 25.234H50.6651H50.5322H50.2662H50.1332C49.8673 25.234 49.6013 25.234 49.2024 25.367C48.5375 25.633 48.1386 25.8989 47.7396 26.4308C47.3407 26.9628 47.0747 27.4947 47.0747 28.0266C47.0747 28.2925 47.0747 28.5585 47.0747 28.8245C47.0747 29.0904 47.2077 29.3564 47.3407 29.6223L47.4737 29.7553L50.6651 35.2074C50.6651 35.3404 50.7981 35.3404 50.6651 35.4734C50.6651 35.6064 50.5322 35.6064 50.5322 35.7394C50.3992 35.7394 50.2662 35.8723 50.2662 35.7394C50.1332 35.7394 50.1332 35.6064 50.0002 35.6064L47.0747 30.4202L46.9417 30.0213C46.8088 29.7553 46.8088 29.3564 46.6758 29.0904C46.6758 28.8245 46.6758 28.4255 46.6758 28.0266C46.8088 27.3617 47.0747 26.6968 47.6066 26.1649C48.0056 25.633 48.5375 25.234 49.3354 25.1011C49.7343 24.9681 50.0003 24.9681 50.2662 24.9681H50.3992H50.5322H50.7981H51.0641C51.33 24.9681 51.596 25.1011 51.862 25.234C52.1279 25.367 52.3939 25.5 52.5268 25.766C52.9258 26.1649 53.1917 26.5638 53.4577 27.0957C53.5907 27.3617 53.5907 27.4947 53.5907 27.7606V28.4255V28.5585V28.8245L53.4577 29.3564V29.4894V29.6223V29.8883ZM53.4577 29.8883C53.4577 30.0213 53.4577 30.0213 53.4577 29.8883V29.8883Z" fill="#689F38"/>
<path fill-rule="evenodd" clip-rule="evenodd" d="M62.3671 56.617H38.298C38.165 56.617 38.032 56.484 37.8991 56.3511C37.7661 56.2181 37.7661 56.0851 37.8991 55.9521L51.4629 32.5479C51.5959 32.4149 51.5959 32.1489 51.5959 32.016C51.5959 31.75 51.4629 31.617 51.1969 31.484C51.0639 31.3511 50.798 31.3511 50.665 31.3511C50.399 31.3511 50.2661 31.484 50.1331 31.75C50.0001 31.883 50.0001 32.1489 50.0001 32.4149C50.0001 32.6808 50.1331 32.8138 50.3991 32.9468C50.532 32.9468 50.532 33.0798 50.532 33.2128C50.532 33.3457 50.532 33.4787 50.532 33.4787C50.532 33.6117 50.399 33.6117 50.2661 33.6117C50.1331 33.6117 50.0001 33.6117 50.0001 33.6117C49.6012 33.3457 49.3352 33.0798 49.2022 32.6808C49.0693 32.2819 49.2022 31.883 49.3352 31.484C49.6012 31.0851 49.8671 30.8191 50.2661 30.6862C50.665 30.5532 51.0639 30.5532 51.4629 30.8191C51.8618 31.0851 52.1278 31.3511 52.2608 31.75C52.3937 32.1489 52.2608 32.5479 52.1278 32.9468L50.798 35.3404L62.7661 55.9521C62.8991 56.0851 62.8991 56.2181 62.7661 56.3511C62.6331 56.617 62.5001 56.617 62.3671 56.617ZM38.9629 55.8191H61.7022L50.3991 36.2713L38.9629 55.8191Z" fill="#689F38"/>
<path fill-rule="evenodd" clip-rule="evenodd" d="M56.649 24.8351H57.048H57.1809C57.4469 24.8351 57.7129 24.9681 57.9788 25.1011C58.2448 25.2341 58.5107 25.367 58.6437 25.633C59.0426 26.0319 59.3086 26.4309 59.5746 26.9628C59.7075 27.2287 59.7075 27.3617 59.7075 27.6277V27.8936V28.4255V28.5585V28.6915L59.5746 29.3564L59.4416 29.7553V29.6223V29.4894L59.5746 29.0904L59.7075 28.6915V28.5585V28.4255V28.2926L59.5746 27.6277C59.5746 27.3617 59.4416 27.2287 59.3086 26.9628C59.1756 26.5638 58.7767 26.0319 58.3778 25.766C58.1118 25.633 57.9788 25.5 57.7129 25.367C57.4469 25.2341 57.1809 25.1011 56.915 25.1011H56.649H56.5161H56.2501H56.1171C55.8512 25.1011 55.5852 25.1011 55.1863 25.2341C54.5214 25.5 54.1224 25.766 53.7235 26.2979C53.3246 26.8298 53.0586 27.3617 53.0586 27.8936C53.0586 28.1596 53.0586 28.4255 53.0586 28.6915C53.0586 28.9575 53.1916 29.2234 53.3246 29.4894L56.649 35.0745C56.649 35.2075 56.782 35.2075 56.649 35.3404C56.649 35.4734 56.5161 35.4734 56.5161 35.6064C56.3831 35.6064 56.2501 35.7394 56.2501 35.6064C56.1171 35.6064 56.1171 35.4734 55.9841 35.4734L53.0586 30.2872L52.9256 29.8883C52.7926 29.6223 52.7926 29.2234 52.6597 28.9575C52.6597 28.5585 52.6597 28.2926 52.6597 27.8936C52.7926 27.2287 53.0586 26.5638 53.4575 26.0319C53.8565 25.5 54.5214 25.1011 55.1863 24.9681C55.5852 24.8351 55.8512 24.8351 56.1171 24.8351H56.2501H56.649Z" fill="#FBC02D"/>
<path fill-rule="evenodd" clip-rule="evenodd" d="M56.649 35.3404L65.6915 50.899C65.8245 51.0319 65.8245 51.1649 65.6915 51.2979C65.5585 51.4309 65.4256 51.5638 65.2926 51.5638H35.2394C35.1064 51.5638 34.9734 51.4309 34.8405 51.2979C34.7075 51.1649 34.7075 51.0319 34.8405 50.899L45.3458 32.6809C45.4788 32.5479 45.4788 32.2819 45.4788 32.1489C45.4788 31.883 45.3458 31.75 45.0798 31.617C44.9468 31.4841 44.6809 31.4841 44.4149 31.4841C44.149 31.4841 44.016 31.617 43.883 31.883C43.883 32.016 43.883 32.2819 44.016 32.4149C44.016 32.6809 44.149 32.8138 44.4149 32.9468C44.5479 32.9468 44.5479 33.0798 44.5479 33.2128C44.5479 33.3458 44.5479 33.4787 44.5479 33.4787C44.5479 33.6117 44.4149 33.6117 44.2819 33.6117C44.149 33.6117 44.016 33.6117 44.016 33.6117C43.6171 33.3458 43.3511 33.0798 43.2181 32.6809C43.0851 32.2819 43.2181 31.883 43.3511 31.4841C43.6171 31.0851 43.883 30.8192 44.2819 30.6862C44.6809 30.5532 45.0798 30.6862 45.4788 30.8192C45.8777 31.0851 46.1436 31.3511 46.2766 31.75C46.4096 32.149 46.4096 32.5479 46.1436 32.9468L35.9043 50.633H64.6277L55.9841 35.6064C55.9841 35.4734 55.8511 35.3404 55.9841 35.3404C55.9841 35.2075 56.1171 35.2075 56.1171 35.0745C56.25 35.0745 56.383 34.9415 56.383 35.0745C56.516 35.0745 56.649 35.2075 56.649 35.3404Z" fill="#FBC02D"/>
<path fill-rule="evenodd" clip-rule="evenodd" d="M65.5586 29.8883L65.6916 29.3564L65.8246 28.8245V28.6915V28.5585V28.4255L65.6916 27.7606C65.6916 27.6277 65.5586 27.3617 65.4256 27.0957C65.1597 26.5638 64.8937 26.1649 64.4948 25.8989C64.3618 25.766 64.0958 25.633 63.8299 25.5C63.5639 25.367 63.298 25.234 63.032 25.234H62.899H62.6331H62.3671H62.2341C61.9682 25.234 61.7022 25.234 61.3033 25.367C60.7714 25.633 60.2395 25.8989 59.8405 26.4308C59.4416 26.9628 59.1756 27.4947 59.1756 28.0266C59.1756 28.2925 59.1756 28.5585 59.1756 28.8245C59.1756 29.0904 59.3086 29.3564 59.4416 29.6223L62.7661 35.2074C62.7661 35.3404 62.899 35.3404 62.7661 35.4734C62.7661 35.6064 62.6331 35.6064 62.5001 35.7394C62.3671 35.7394 62.3671 35.8723 62.2341 35.7394C62.1012 35.7394 62.1012 35.6064 61.9682 35.6064L59.0427 30.4202L58.7767 30.0213C58.6437 29.6223 58.5107 29.3564 58.5107 29.0904C58.5107 28.8245 58.5107 28.4255 58.5107 28.0266C58.6437 27.3617 58.9097 26.6968 59.4416 26.1649C59.8405 25.633 60.3724 25.234 61.1703 25.1011C61.5693 24.9681 61.8352 24.9681 62.1012 24.9681H62.2341H62.3671H62.6331H62.899C63.165 24.9681 63.431 25.1011 63.6969 25.234C63.9629 25.367 64.2288 25.5 64.3618 25.766C64.7607 26.1649 65.0267 26.5638 65.2927 27.0957C65.2927 27.2287 65.4256 27.4947 65.4256 27.7606V28.4255V28.6915V28.8245V29.2234L65.2927 29.6223L65.5586 29.8883Z" fill="#F57C00"/>
<path fill-rule="evenodd" clip-rule="evenodd" d="M62.7659 35.3404L68.75 45.7128C68.8829 45.8457 68.8829 45.9787 68.75 46.1117C68.617 46.2447 68.617 46.2447 68.351 46.2447H32.1808C32.0478 46.2447 31.9148 46.1117 31.7819 45.9787C31.6489 45.8457 31.6489 45.7128 31.7819 45.5798L39.3617 32.5479C39.4946 32.4149 39.4946 32.1489 39.4946 32.016C39.4946 31.75 39.3617 31.617 39.0957 31.484C38.9627 31.3511 38.6968 31.3511 38.5638 31.3511C38.2978 31.3511 38.1648 31.484 38.0319 31.75C37.8989 31.883 37.8989 32.1489 37.8989 32.4149C37.8989 32.6808 38.0319 32.8138 38.2978 32.9468C38.4308 32.9468 38.4308 33.0798 38.5638 33.2128C38.5638 33.3457 38.5638 33.4787 38.5638 33.4787C38.5638 33.6117 38.4308 33.6117 38.2978 33.6117C38.1648 33.6117 38.0319 33.6117 38.0319 33.6117C37.6329 33.3457 37.367 33.0798 37.234 32.6808C37.101 32.2819 37.234 31.883 37.367 31.484C37.6329 31.0851 37.8989 30.8191 38.2978 30.6862C38.6968 30.5532 39.0957 30.5532 39.4946 30.8191C39.8936 31.0851 40.1595 31.3511 40.2925 31.75C40.4255 32.1489 40.2925 32.5479 40.1595 32.9468L32.9787 45.3138H67.6861L61.968 35.4734C61.968 35.3404 61.968 35.2074 61.968 35.2074C61.968 35.0745 62.101 35.0745 62.234 34.9415C62.367 34.9415 62.367 34.8085 62.5 34.9415C62.6329 35.0745 62.6329 35.2074 62.7659 35.3404Z" fill="#F57C00"/>
<path fill-rule="evenodd" clip-rule="evenodd" d="M68.4841 24.8351H68.7501H69.149H69.282C69.548 24.8351 69.8139 24.9681 70.0799 25.1011C70.3458 25.2341 70.6118 25.367 70.7448 25.633C71.1437 26.0319 71.4097 26.4309 71.6756 26.9628C71.8086 27.2287 71.8086 27.3617 71.8086 27.6277V27.8936V28.2926V28.4255V28.5585V28.6915V29.4894V29.6223V29.7553L71.5427 30.4202L71.6756 30.1543C71.6756 30.1543 71.6756 30.1543 71.6756 30.0213V29.8883L71.8086 29.6223L71.9416 29.0904V28.9575V28.2926V28.0266C71.9416 27.7606 71.8086 27.6277 71.6756 27.3617C71.5427 26.9628 71.1437 26.4309 70.7448 26.1649C70.4788 26.0319 70.3458 25.8989 70.0799 25.766C69.8139 25.633 69.548 25.5 69.282 25.5H69.0161H68.8831H68.6171H68.4841C68.2182 25.5 67.9522 25.5 67.5533 25.633C66.8884 25.8989 66.4895 26.1649 66.0905 26.6968C65.6916 27.2287 65.4256 27.7606 65.4256 28.2926C65.4256 28.5585 65.4256 28.8245 65.4256 29.0904C65.4256 29.3564 65.5586 29.6223 65.6916 29.8883L65.8246 30.0213L69.0161 35.4734C69.0161 35.6064 69.149 35.6064 69.0161 35.7394C69.0161 35.8723 68.8831 35.8724 68.8831 36.0053C68.7501 36.0053 68.6171 36.1383 68.6171 36.0053C68.4841 36.0053 68.4841 35.8724 68.3512 35.8724L65.1597 30.4202L65.0267 30.0213C64.8937 29.7553 64.8937 29.3564 64.7607 29.0904C64.7607 28.6915 64.7607 28.4255 64.7607 28.0266C64.8937 27.3617 65.1597 26.6968 65.5586 26.1649C65.9575 25.633 66.6224 25.2341 67.2873 25.1011C67.6863 24.9681 67.9522 24.9681 68.2182 24.9681L68.4841 24.8351Z" fill="#D32F2F"/>
<path fill-rule="evenodd" clip-rule="evenodd" d="M68.7502 35.3405L71.8087 40.5266C71.9417 40.6596 71.9417 40.7926 71.8087 40.9256C71.6757 41.0585 71.6757 41.0585 71.4098 41.0585H29.2555C29.1225 41.0585 28.9895 41.0585 28.8566 40.9256C28.7236 40.7926 28.7236 40.6596 28.8566 40.5266L33.3778 32.6809C33.5108 32.5479 33.5108 32.2819 33.5108 32.149C33.5108 31.883 33.3778 31.75 33.1119 31.617C32.9789 31.4841 32.713 31.4841 32.58 31.4841C32.314 31.4841 32.181 31.617 32.0481 31.883C31.9151 32.016 31.9151 32.2819 31.9151 32.4149C31.9151 32.6809 32.0481 32.8139 32.314 32.9468C32.447 32.9468 32.447 33.0798 32.447 33.2128C32.447 33.3458 32.447 33.4787 32.447 33.4787C32.447 33.6117 32.314 33.6117 32.181 33.6117C32.0481 33.6117 31.9151 33.6117 31.9151 33.6117C31.5161 33.3458 31.2502 33.0798 31.1172 32.6809C30.9842 32.2819 31.1172 31.883 31.2502 31.4841C31.5161 31.0851 31.7821 30.8192 32.181 30.6862C32.58 30.5532 32.9789 30.5532 33.3778 30.8192C33.7768 31.0851 34.0427 31.3511 34.1757 31.75C34.3087 32.149 34.1757 32.5479 34.0427 32.9468L29.9204 40.1277H70.7449L68.0853 35.4734C68.0853 35.3404 67.9523 35.2075 68.0853 35.2075C68.0853 35.0745 68.2183 35.0745 68.2183 34.9415C68.3512 34.9415 68.4842 34.8085 68.4842 34.9415C68.6172 35.0745 68.7502 35.2075 68.7502 35.3405Z" fill="#D32F2F"/>
</svg>

