<?xml version="1.0" encoding="utf-8"?>

<!DOCTYPE svg PUBLIC "-//W3C//DTD SVG 1.1//EN" "http://www.w3.org/Graphics/SVG/1.1/DTD/svg11.dtd">
<svg version="1.1" id="Layer_1" xmlns="http://www.w3.org/2000/svg" xmlns:xlink="http://www.w3.org/1999/xlink" x="0px" y="0px"
	 width="143.888px" height="152px" viewBox="83.112 -109 143.888 152" enable-background="new 83.112 -109 143.888 152"
	 xml:space="preserve">
<g>
	<path fill="#666666" d="M103.588,6.2V-6.043h3.275v9.591h4.68V6.2H103.588z"/>
	<path fill="#666666" d="M124.486,6.2h-7.252V-6.043h7.252v2.651h-3.977v1.95h3.743v2.651h-3.665v2.34h3.977V6.2H124.486z"/>
	<path fill="#666666" d="M137.198-6.043h3.664L136.886,6.2h-3.898L129.01-6.043h3.743l1.638,6.238
		c0.312,1.404,0.546,2.339,0.546,2.885c0-0.39,0.156-0.858,0.234-1.481c0.156-0.624,0.234-1.014,0.312-1.404L137.198-6.043z"/>
	<path fill="#666666" d="M145.931,6.2V-6.043h3.354V6.2H145.931z"/>
	<path fill="#666666" d="M160.982,6.2h-3.276v-9.514h-3.041v-2.729h9.28v2.729h-2.963V6.2z"/>
	<path fill="#666666" d="M176.891,6.2l-0.624-2.262h-3.977L171.666,6.2H168l3.978-12.322h4.445L180.479,6.2H176.891z M175.564,1.208
		l-0.546-2.027c-0.155-0.468-0.233-1.014-0.468-1.715c-0.156-0.702-0.313-1.248-0.313-1.561c-0.077,0.313-0.155,0.781-0.312,1.404
		s-0.467,1.95-1.014,3.899H175.564z"/>
	<path fill="#666666" d="M190.85,6.2h-3.275v-9.514h-2.963v-2.729h9.279v2.729h-2.964V6.2H190.85z"/>
	<path fill="#666666" d="M206.524,6.2h-7.253V-6.043h7.253v2.651h-3.979v1.95h3.666v2.651h-3.666v2.34h3.979V6.2z"/>
	<path fill="#512DA8" d="M134.156,11.893h-0.779v7.251h0.779V11.893z"/>
	<path fill="#689F38" d="M168.313,11.893h-0.779v7.251h0.779V11.893z"/>
	<path fill="#666666" d="M107.331,18.441h-3.666V12.36h1.015v5.224h2.651V18.441z"/>
	<path fill="#666666" d="M109.357,14.387c0.391-0.468,0.938-0.624,1.561-0.624c0.624,0,1.092,0.234,1.403,0.546
		c0.391,0.389,0.547,0.857,0.547,1.481v0.546h-3.042c0,0.467,0.155,0.857,0.391,1.091c0.233,0.234,0.545,0.313,0.935,0.313
		l0.78-0.079l0.78-0.311v0.936l-0.702,0.234l-0.858,0.077c-0.701,0-1.247-0.233-1.716-0.624c-0.389-0.39-0.623-1.014-0.623-1.715
		C108.813,15.479,108.969,14.854,109.357,14.387z M111.932,15.712c0-0.389-0.157-0.701-0.312-0.857
		c-0.156-0.234-0.469-0.311-0.702-0.311c-0.313,0-0.546,0.155-0.779,0.311c-0.157,0.235-0.234,0.469-0.313,0.857H111.932z"/>
	<path fill="#666666" d="M115.362,17.662c0.156,0.079,0.313,0.156,0.547,0.156c0.39,0,0.701-0.078,0.857-0.311
		c0.234-0.156,0.313-0.469,0.313-0.859v-0.389l-0.624,0.078c-0.469,0-0.78,0.077-1.015,0.233c-0.156,0.156-0.311,0.312-0.311,0.624
		L115.362,17.662z M114.583,18.208c-0.233-0.234-0.391-0.624-0.391-1.091c0-0.469,0.157-0.857,0.547-1.092
		c0.391-0.313,0.936-0.39,1.56-0.39l0.858-0.078v-0.233c0-0.313-0.078-0.546-0.234-0.625c-0.156-0.155-0.391-0.234-0.624-0.234
		l-0.702,0.156l-0.623,0.234l-0.313-0.701l0.857-0.313l0.858-0.156c0.624,0,1.092,0.156,1.325,0.391
		c0.313,0.312,0.469,0.701,0.469,1.248v3.118h-0.702l-0.234-0.624h-0.077c-0.234,0.313-0.469,0.469-0.625,0.546l-0.936,0.156
		C115.13,18.598,114.817,18.441,114.583,18.208z"/>
	<path fill="#666666" d="M120.978,14.621l0.624-0.624c0.234-0.156,0.468-0.234,0.78-0.234l0.467,0.078l-0.077,0.936l-0.468-0.079
		c-0.391,0-0.702,0.156-0.937,0.391c-0.233,0.234-0.39,0.545-0.39,1.014v2.417h-1.014v-4.601h0.78L120.978,14.621z"/>
	<path fill="#666666" d="M127.762,15.634c0-0.389-0.078-0.624-0.234-0.857c-0.155-0.156-0.389-0.233-0.701-0.233
		c-0.391,0-0.702,0.155-0.936,0.39c-0.156,0.234-0.313,0.624-0.313,1.248v2.261h-1.014v-4.601h0.78l0.156,0.624h0.077
		c0.156-0.232,0.313-0.389,0.624-0.545l0.858-0.156c1.092,0,1.638,0.546,1.638,1.716v2.962h-1.015v-2.807H127.762z"/>
	<path fill="#666666" d="M143.826,12.593l-0.311,0.859c-0.47-0.235-1.016-0.391-1.561-0.391c-0.623,0-1.17,0.233-1.56,0.702
		c-0.39,0.39-0.547,0.935-0.547,1.637c0,0.78,0.157,1.326,0.547,1.716s0.858,0.624,1.48,0.624l1.093-0.079v-1.559h-1.326v-0.936
		h2.261v3.12l-1.091,0.234l-1.092,0.077c-0.936,0-1.637-0.233-2.184-0.857c-0.468-0.546-0.701-1.326-0.701-2.261
		c0-1.015,0.312-1.795,0.857-2.34c0.546-0.546,1.325-0.857,2.339-0.857C142.656,12.204,143.279,12.36,143.826,12.593z"/>
	<path fill="#666666" d="M146.01,18.441v-4.601h0.779l0.157,0.857h0.077l0.623-0.624c0.235-0.155,0.47-0.233,0.781-0.233
		l0.467,0.079l-0.078,0.935l-0.467-0.078c-0.391,0-0.703,0.156-0.937,0.39c-0.233,0.233-0.39,0.545-0.39,1.014v2.417h-1.014V18.441z
		"/>
	<path fill="#666666" d="M152.482,14.543c-0.468,0-0.701,0.155-0.936,0.39c-0.156,0.311-0.313,0.701-0.313,1.17
		c0,1.091,0.392,1.559,1.172,1.559c0.779,0,1.168-0.545,1.168-1.559C153.651,15.089,153.262,14.543,152.482,14.543z M152.482,13.763
		c0.625,0,1.169,0.234,1.56,0.624c0.391,0.467,0.545,1.013,0.545,1.793c0,0.78-0.154,1.326-0.545,1.793
		c-0.391,0.39-0.935,0.624-1.637,0.624c-0.468,0-0.858-0.077-1.172-0.311c-0.311-0.156-0.544-0.469-0.7-0.859
		c-0.156-0.39-0.313-0.78-0.313-1.247c0-0.78,0.234-1.326,0.547-1.793C151.233,13.997,151.781,13.763,152.482,13.763z"/>
	<path fill="#666666" d="M161.841,13.841h1.013l-1.325,4.601h-1.092l-1.014-3.743l-1.014,3.743h-1.17l-1.247-4.601h1.013
		l0.859,3.743l1.014-3.743h1.091l0.937,3.743h0.077L161.841,13.841z"/>
	<path fill="#666666" d="M174.629,12.36c0.779,0,1.326,0.156,1.794,0.39c0.389,0.312,0.546,0.78,0.546,1.326
		c0,0.779-0.391,1.325-1.248,1.636l1.794,2.729h-1.17l-1.481-2.417h-1.014v2.417h-1.014V12.36H174.629z M174.551,13.217h-0.624v1.95
		h0.702c0.468,0,0.858-0.078,1.015-0.234c0.155-0.156,0.312-0.469,0.312-0.78c0-0.313-0.077-0.545-0.312-0.701
		C175.408,13.294,175.019,13.217,174.551,13.217z"/>
	<path fill="#666666" d="M181.959,15.712c0-0.389-0.156-0.701-0.313-0.857c-0.155-0.234-0.468-0.311-0.701-0.311
		c-0.311,0-0.546,0.155-0.78,0.311c-0.154,0.235-0.311,0.469-0.311,0.857H181.959z M179.386,14.387
		c0.39-0.468,0.936-0.624,1.56-0.624s1.092,0.234,1.403,0.546c0.391,0.389,0.547,0.857,0.547,1.481v0.546h-3.041
		c0,0.467,0.156,0.857,0.39,1.091c0.234,0.234,0.545,0.313,0.935,0.313l0.78-0.079l0.78-0.311v0.936l-0.702,0.234l-0.858,0.077
		c-0.7,0-1.247-0.233-1.714-0.624c-0.391-0.39-0.626-1.014-0.626-1.715C178.839,15.479,178.995,14.854,179.386,14.387z"/>
	<path fill="#666666" d="M187.73,16.103c0-0.546-0.078-0.859-0.313-1.17c-0.156-0.313-0.468-0.39-0.779-0.39
		c-0.391,0-0.625,0.155-0.859,0.39c-0.155,0.234-0.311,0.624-0.311,1.091v0.156c0,0.546,0.078,0.936,0.311,1.247
		c0.156,0.234,0.469,0.39,0.859,0.39c0.312,0,0.623-0.156,0.779-0.39C187.652,17.117,187.73,16.648,187.73,16.103z M188.275,14.387
		c0.312,0.467,0.47,1.013,0.47,1.793c0,0.78-0.158,1.403-0.47,1.793c-0.389,0.39-0.857,0.624-1.402,0.624
		c-0.547,0-1.015-0.233-1.404-0.624h-0.078l0.078,0.703v1.948h-1.014v-6.706h0.78l0.155,0.624c0.312-0.468,0.779-0.703,1.403-0.703
		C187.496,13.763,187.964,13.919,188.275,14.387z"/>
	<path fill="#666666" d="M193.657,15.712c0-0.389-0.156-0.701-0.313-0.857c-0.156-0.234-0.468-0.311-0.703-0.311
		c-0.311,0-0.545,0.155-0.779,0.311c-0.155,0.235-0.312,0.469-0.312,0.857H193.657z M191.083,14.387
		c0.391-0.468,0.936-0.624,1.559-0.624c0.625,0,1.093,0.234,1.405,0.546c0.39,0.389,0.545,0.857,0.545,1.481v0.546h-3.041
		c0,0.467,0.156,0.857,0.39,1.091c0.234,0.234,0.547,0.313,0.937,0.313l0.78-0.079l0.779-0.311v0.936l-0.702,0.234l-0.857,0.077
		c-0.702,0-1.247-0.233-1.715-0.624c-0.392-0.39-0.625-1.014-0.625-1.715C190.537,15.479,190.692,14.854,191.083,14.387z"/>
	<path fill="#666666" d="M197.242,16.57c-0.154,0.156-0.311,0.312-0.311,0.624l0.156,0.467c0.154,0.079,0.311,0.156,0.546,0.156
		c0.389,0,0.703-0.078,0.857-0.311c0.233-0.156,0.312-0.469,0.312-0.859v-0.389l-0.622,0.078
		C197.79,16.259,197.478,16.337,197.242,16.57z M198.881,15.634V15.4c0-0.311-0.078-0.546-0.233-0.624
		c-0.156-0.156-0.39-0.233-0.625-0.233l-0.701,0.155l-0.623,0.235l-0.313-0.701l0.856-0.313l0.859-0.156
		c0.623,0,1.091,0.156,1.324,0.39c0.313,0.311,0.469,0.701,0.469,1.247v3.12h-0.702l-0.233-0.624h-0.078
		c-0.233,0.312-0.467,0.468-0.623,0.545l-0.937,0.156c-0.467,0-0.857-0.077-1.092-0.311c-0.234-0.235-0.391-0.625-0.391-1.092
		c0-0.468,0.156-0.857,0.547-1.091c0.391-0.313,0.936-0.391,1.56-0.391L198.881,15.634z"/>
	<path fill="#666666" d="M201.768,17.038v-2.495h-0.625v-0.39l0.702-0.39l0.313-1.014h0.624v1.014h1.324v0.701h-1.324v2.496
		c0,0.234,0.077,0.39,0.233,0.546c0.077,0.077,0.233,0.155,0.468,0.155l0.702-0.155v0.701l-1.014,0.156
		C202.234,18.598,201.768,18.13,201.768,17.038z"/>
	<g>
		<path fill="#512DA8" d="M181.854-78.05c0.584-0.194,1.169-0.194,1.755,0.195c0.584,0.39,0.973,0.779,1.168,1.364
			c0.195,0.585,0.195,1.169-0.195,1.754l-28.646,49.502l4.286,7.211c0.197,0.193,0.197,0.391,0,0.585
			c0,0.194-0.195,0.389-0.586,0.389h-8.769c-0.195,0-0.392-0.195-0.586-0.389c-0.194-0.194-0.194-0.392,0-0.585l4.288-7.211
			l-26.505-45.409c0-0.196,0-0.39,0-0.585c0-0.195,0.194-0.195,0.391-0.389c0.195,0,0.195-0.196,0.39,0
			c0.194,0,0.194,0.194,0.39,0.194l25.918,44.825l28.262-48.528c0.194-0.195,0.194-0.585,0.194-0.975s-0.194-0.585-0.586-0.779
			c-0.193-0.195-0.585-0.195-0.779-0.195c-0.39,0.195-0.584,0.195-0.779,0.584c-0.194,0.39-0.194,0.585-0.194,0.975
			s0.194,0.584,0.584,0.779c0.194,0.194,0.194,0.194,0.39,0.39c0,0.195,0,0.389,0,0.389c0,0.196-0.195,0.196-0.39,0.196
			s-0.39,0-0.39,0c-0.584-0.391-0.974-0.781-1.169-1.365c-0.196-0.585-0.196-1.169,0.195-1.753
			C180.684-77.465,181.076-77.854,181.854-78.05z M158.468-18.413l-3.315-5.847l-3.311,5.847H158.468z"/>
		<path fill="#512DA8" d="M129.234-86.625h0.389h0.39c0.391,0,0.78,0.195,1.171,0.39c0.39,0.195,0.777,0.39,0.973,0.78
			c0.586,0.584,0.975,1.168,1.365,1.949c0.195,0.389,0.195,0.584,0.195,0.974v1.364v0.194l-0.195,0.585l-0.194,0.585l-0.196,0.389
			l0.196-0.779l0.194-0.78v-0.194v-0.195v-0.78v-0.389c0-0.195-0.194-0.585-0.391-0.974c-0.389-0.781-0.778-1.365-1.363-1.755
			c-0.194-0.194-0.584-0.389-0.975-0.584c-0.39-0.194-0.78-0.39-1.17-0.39h-0.194h-0.39h-0.391h-0.194c-0.39,0-0.781,0-1.364,0.195
			c-0.779,0.39-1.56,0.779-2.144,1.559c-0.585,0.779-0.975,1.559-0.975,2.338c0,0.39,0,0.78,0,1.169c0,0.391,0.195,0.78,0.39,1.17
			l0.195,0.194l4.678,7.992c0,0.194,0.194,0.194,0,0.389c0,0.195-0.195,0.195-0.195,0.389c-0.194,0-0.194,0.196-0.391,0
			c-0.194,0-0.194-0.194-0.39-0.194l-4.287-7.602l-0.389-0.584c-0.196-0.584-0.391-0.974-0.391-1.363c0-0.391,0-0.975,0-1.56
			c0.194-0.974,0.585-1.948,1.364-2.729c0.585-0.779,1.364-1.364,2.533-1.559c0.583-0.195,0.975-0.195,1.364-0.195h0.194H129.234z"
			/>
		<path fill="#1976D2" d="M172.889-78.05c0.584-0.194,1.17-0.194,1.755,0.195c0.584,0.39,0.973,0.779,1.168,1.364
			c0.195,0.585,0,1.169-0.195,1.754L155.934-40.63l8.574,15.005c0.194,0.194,0.194,0.391,0,0.585c0,0.195-0.195,0.195-0.39,0.195
			h-17.735c-0.194,0-0.39,0-0.584-0.195c-0.194-0.194-0.194-0.391,0-0.585l8.771-15.005l-17.541-30.013c0-0.196-0.194-0.39,0-0.39
			c0-0.195,0.195-0.195,0.195-0.39c0.196,0,0.391-0.194,0.391,0c0.193,0,0.193,0.195,0.391,0.195l17.147,29.428l19.295-33.326
			c0.196-0.195,0.196-0.585,0.196-0.779c0-0.39-0.196-0.585-0.585-0.78c-0.196-0.194-0.586-0.194-0.779-0.194
			c-0.391,0-0.585,0.194-0.779,0.584c-0.195,0.195-0.195,0.584-0.195,0.974c0,0.39,0.195,0.585,0.584,0.779
			c0.195,0,0.195,0.196,0.195,0.391c0,0.194,0,0.391,0,0.391c0,0.194-0.195,0.194-0.39,0.194s-0.39,0-0.39,0
			c-0.585-0.39-0.976-0.779-1.171-1.364c-0.194-0.584,0-1.169,0.195-1.754C171.915-77.465,172.305-77.854,172.889-78.05z
			 M147.358-26.015h15.59l-7.796-13.447L147.358-26.015z"/>
		<path fill="#1976D2" d="M137.614-86.625h0.391h0.389h0.39c0.39,0,0.779,0.195,1.17,0.39s0.779,0.39,0.975,0.78
			c0.584,0.584,0.975,1.168,1.363,1.949c0.196,0.389,0.196,0.584,0.196,0.974v0.389v0.585v0.195v0.195v0.194l-0.196,0.585v0.195
			v0.195l-0.389,1.364l0.193-0.39c0,0,0,0,0-0.195v-0.195l0.195-0.584l0.196-0.584v-0.196v-0.584l-0.196-0.974
			c0-0.39-0.195-0.585-0.389-0.975c-0.196-0.584-0.781-1.364-1.364-1.754c-0.39-0.195-0.585-0.389-0.976-0.584
			c-0.39-0.195-0.779-0.39-1.169-0.39h-0.389h-0.391h-0.194c-0.392,0-0.78,0-1.364,0.194c-0.975,0.39-1.561,0.779-2.146,1.559
			c-0.583,0.781-0.973,1.56-0.973,2.339c0,0.39,0,0.78,0,1.169c0,0.39,0.193,0.78,0.39,1.169l0.194,0.195l4.678,7.991
			c0,0.195,0.194,0.195,0,0.39c0,0.194-0.194,0.194-0.194,0.39c-0.197,0-0.391,0.194-0.391,0c-0.194,0-0.194-0.196-0.39-0.196
			l-4.287-7.6l-0.195-0.585c-0.196-0.39-0.196-0.974-0.39-1.364c0-0.585,0-0.975,0-1.56c0.193-0.974,0.585-1.948,1.169-2.728
			c0.585-0.78,1.56-1.364,2.534-1.56c0.584-0.195,0.973-0.195,1.364-0.195L137.614-86.625z"/>
		<path fill="#00796B" d="M166.846-74.542l-10.912,18.71l13.057,22.607c0.195,0.195,0.195,0.39,0,0.584
			c-0.194,0.195-0.39,0.195-0.584,0.195H141.9c-0.194,0-0.389,0-0.584-0.195c-0.195-0.194-0.195-0.389,0-0.584l13.059-22.607
			l-8.576-14.811c0-0.196,0-0.39,0-0.39c0-0.195,0.194-0.195,0.194-0.39c0.195,0,0.39-0.194,0.39,0c0.196,0,0.196,0.195,0.391,0.195
			l8.379,14.227l10.525-18.125c0.195-0.195,0.195-0.585,0.195-0.779c0-0.39-0.195-0.585-0.586-0.78
			c-0.194-0.195-0.585-0.195-0.975-0.195c-0.389,0-0.584,0.195-0.778,0.585c-0.194,0.195-0.194,0.584-0.194,0.974
			c0,0.39,0.194,0.585,0.584,0.779c0.194,0,0.194,0.196,0.194,0.391c0,0.194,0,0.391,0,0.391c0,0.194-0.194,0.194-0.39,0.194
			c-0.194,0-0.389,0-0.389,0c-0.585-0.39-0.976-0.779-1.171-1.364c-0.193-0.584,0-1.169,0.195-1.754
			c0.391-0.584,0.779-0.974,1.364-1.168c0.584-0.195,1.17,0,1.754,0.194c0.586,0.39,0.975,0.779,1.168,1.364
			C167.237-75.711,167.042-75.126,166.846-74.542z M143.07-33.614h24.361l-12.279-21.048L143.07-33.614z"/>
		<path fill="#00796B" d="M146.383-86.625h0.391h0.389h0.392c0.389,0,0.778,0.195,1.167,0.39c0.392,0.195,0.782,0.39,0.977,0.78
			c0.584,0.584,0.975,1.168,1.362,1.949c0.197,0.389,0.197,0.584,0.391,0.974v0.974v0.39v0.194v0.195l-0.193,0.975l-0.197,0.389
			l-0.194,0.39l0.392-0.974v-0.195l0.193-0.78v-0.194v-0.195v-0.39c0-0.195,0-0.195,0-0.39c0-0.389-0.193-0.584-0.391-0.974
			c-0.388-0.779-0.778-1.364-1.362-1.754c-0.39-0.195-0.585-0.39-0.977-0.584c-0.389-0.195-0.778-0.39-1.167-0.39h-0.392h-0.194
			h-0.389h-0.196c-0.39,0-0.778,0-1.362,0.195c-0.781,0.389-1.561,0.779-2.145,1.559c-0.585,0.779-0.976,1.559-0.976,2.338
			c0,0.39,0,0.779,0,1.17c0,0.389,0.195,0.779,0.391,1.168l4.871,8.186c0,0.195,0,0.195,0,0.389c0,0.196-0.194,0.196-0.194,0.39
			c-0.194,0-0.194,0.196-0.389,0c-0.196,0-0.196-0.194-0.391-0.194l-4.288-7.601l-0.389-0.585c-0.195-0.39-0.195-0.974-0.391-1.364
			c0-0.389,0-0.974,0-1.559c0.195-0.974,0.585-1.95,1.17-2.729c0.585-0.78,1.559-1.364,2.533-1.559
			c0.585-0.195,0.975-0.195,1.364-0.195L146.383-86.625z"/>
		<path fill="#689F38" d="M159.831-79.219l0.195-0.584l0.195-0.585v-0.39v-0.195v-0.194v-0.195l-0.195-0.974
			c0-0.195-0.195-0.585-0.391-0.975c-0.389-0.779-0.777-1.364-1.361-1.754c-0.197-0.195-0.586-0.389-0.978-0.584
			c-0.388-0.195-0.777-0.391-1.167-0.391h-0.391h-0.195h-0.392h-0.193c-0.39,0-0.778,0-1.363,0.195
			c-0.975,0.39-1.559,0.779-2.144,1.559c-0.585,0.781-0.977,1.56-0.977,2.339c0,0.39,0,0.78,0,1.169c0,0.39,0.196,0.78,0.392,1.169
			l0.195,0.195l4.677,7.991c0,0.195,0.194,0.195,0,0.39c0,0.194-0.195,0.194-0.195,0.39c-0.194,0-0.392,0.194-0.392,0
			c-0.193,0-0.193-0.196-0.388-0.196l-4.289-7.6l-0.194-0.585c-0.194-0.39-0.194-0.974-0.389-1.364c0-0.39,0-0.975,0-1.56
			c0.194-0.974,0.583-1.948,1.364-2.728c0.585-0.78,1.364-1.365,2.534-1.56c0.584-0.195,0.974-0.195,1.361-0.195h0.197h0.194h0.39
			h0.391c0.39,0,0.779,0.195,1.168,0.39c0.391,0.195,0.782,0.391,0.976,0.78c0.585,0.585,0.975,1.17,1.363,1.949
			c0.195,0.39,0.195,0.585,0.195,0.975v0.974v0.195v0.389l-0.195,0.78v0.195v0.194V-79.219z M159.831-79.219
			C159.831-79.024,159.831-79.024,159.831-79.219L159.831-79.219z"/>
		<path fill="#689F38" d="M172.889-40.047h-35.274c-0.194,0-0.39-0.194-0.586-0.389c-0.194-0.195-0.194-0.391,0-0.585l19.881-34.301
			c0.194-0.194,0.194-0.584,0.194-0.779c0-0.39-0.194-0.585-0.584-0.78c-0.195-0.194-0.586-0.194-0.78-0.194
			c-0.391,0-0.587,0.194-0.78,0.584c-0.194,0.195-0.194,0.585-0.194,0.975s0.194,0.584,0.584,0.779c0.195,0,0.195,0.194,0.195,0.39
			c0,0.195,0,0.389,0,0.389c0,0.196-0.195,0.196-0.392,0.196c-0.193,0-0.388,0-0.388,0c-0.584-0.391-0.976-0.781-1.17-1.365
			c-0.194-0.585,0-1.169,0.194-1.754c0.392-0.584,0.78-0.974,1.363-1.169c0.587-0.194,1.172-0.194,1.757,0.195
			c0.583,0.39,0.974,0.779,1.168,1.364c0.195,0.585,0,1.169-0.194,1.754l-1.949,3.508l17.539,30.208
			c0.194,0.195,0.194,0.391,0,0.585C173.279-40.047,173.084-40.047,172.889-40.047z M138.59-41.216h33.325l-16.566-28.648
			L138.59-41.216z"/>
		<path fill="#FBC02D" d="M164.508-86.625h0.585h0.194c0.391,0,0.781,0.195,1.17,0.39s0.78,0.39,0.975,0.78
			c0.585,0.584,0.975,1.168,1.364,1.949c0.194,0.389,0.194,0.584,0.194,0.974v0.389v0.78v0.195v0.194l-0.194,0.975l-0.195,0.584
			v-0.195v-0.194l0.195-0.585l0.194-0.585v-0.194v-0.195v-0.195l-0.194-0.974c0-0.39-0.195-0.585-0.39-0.974
			c-0.194-0.585-0.778-1.365-1.364-1.755c-0.392-0.194-0.585-0.389-0.974-0.584c-0.391-0.194-0.781-0.39-1.17-0.39h-0.391h-0.195
			h-0.389h-0.195c-0.389,0-0.78,0-1.363,0.195c-0.976,0.39-1.559,0.779-2.144,1.559c-0.586,0.779-0.975,1.559-0.975,2.338
			c0,0.39,0,0.78,0,1.169c0,0.391,0.195,0.78,0.389,1.17l4.872,8.186c0,0.194,0.196,0.194,0,0.389c0,0.195-0.195,0.195-0.195,0.389
			c-0.194,0-0.389,0.196-0.389,0c-0.195,0-0.195-0.194-0.39-0.194l-4.287-7.602l-0.194-0.584c-0.194-0.39-0.194-0.974-0.39-1.363
			c0-0.585,0-0.975,0-1.56c0.195-0.974,0.584-1.948,1.168-2.729c0.585-0.779,1.559-1.364,2.534-1.559
			c0.583-0.195,0.975-0.195,1.363-0.195h0.195H164.508z"/>
		<path fill="#FBC02D" d="M164.508-71.229l13.254,22.801c0.193,0.194,0.193,0.391,0,0.586c-0.195,0.194-0.39,0.391-0.585,0.391
			h-44.046c-0.193,0-0.389-0.196-0.585-0.391c-0.193-0.195-0.193-0.392,0-0.586l15.396-26.699c0.195-0.195,0.195-0.585,0.195-0.779
			c0-0.39-0.195-0.585-0.584-0.78c-0.195-0.194-0.586-0.194-0.975-0.194c-0.391,0-0.586,0.194-0.78,0.584
			c0,0.195,0,0.584,0.194,0.78c0,0.39,0.195,0.584,0.586,0.779c0.194,0,0.194,0.194,0.194,0.39c0,0.195,0,0.389,0,0.389
			c0,0.196-0.194,0.196-0.391,0.196c-0.194,0-0.39,0-0.39,0c-0.584-0.391-0.973-0.781-1.169-1.365c-0.195-0.585,0-1.169,0.196-1.753
			c0.389-0.585,0.778-0.975,1.362-1.17c0.585-0.194,1.171,0,1.755,0.195c0.585,0.39,0.975,0.779,1.17,1.364
			c0.195,0.585,0.195,1.169-0.195,1.754l-15.006,25.92h42.097l-12.669-22.022c0-0.194-0.194-0.389,0-0.389
			c0-0.195,0.194-0.195,0.194-0.389c0.195,0,0.39-0.196,0.39,0C164.313-71.618,164.508-71.423,164.508-71.229z"/>
		<path fill="#F57C00" d="M177.566-79.219l0.195-0.779l0.193-0.78v-0.195v-0.194v-0.195l-0.193-0.974
			c0-0.195-0.195-0.585-0.39-0.975c-0.39-0.779-0.78-1.364-1.365-1.754c-0.195-0.195-0.585-0.389-0.974-0.584
			c-0.39-0.195-0.779-0.391-1.17-0.391h-0.196h-0.388h-0.391h-0.194c-0.39,0-0.779,0-1.365,0.195
			c-0.778,0.39-1.559,0.779-2.144,1.559c-0.585,0.781-0.974,1.56-0.974,2.339c0,0.39,0,0.78,0,1.169c0,0.39,0.194,0.78,0.389,1.169
			l4.872,8.186c0,0.195,0.194,0.195,0,0.39c0,0.194-0.193,0.194-0.389,0.39c-0.195,0-0.195,0.194-0.39,0
			c-0.194,0-0.194-0.196-0.39-0.196l-4.288-7.6l-0.389-0.585c-0.196-0.585-0.391-0.974-0.391-1.364c0-0.39,0-0.975,0-1.56
			c0.194-0.974,0.586-1.948,1.363-2.728c0.585-0.78,1.365-1.365,2.533-1.56c0.586-0.195,0.976-0.195,1.366-0.195h0.194h0.194h0.391
			h0.388c0.392,0,0.782,0.195,1.172,0.39c0.389,0.195,0.777,0.391,0.973,0.78c0.586,0.585,0.977,1.17,1.365,1.949
			c0,0.195,0.195,0.585,0.195,0.975v0.974v0.39v0.195v0.585l-0.195,0.584L177.566-79.219z"/>
		<path fill="#F57C00" d="M173.473-71.229l8.771,15.202c0.194,0.194,0.194,0.389,0,0.584c-0.195,0.195-0.195,0.195-0.584,0.195
			h-53.011c-0.194,0-0.39-0.195-0.585-0.39c-0.194-0.195-0.194-0.389,0-0.585l11.109-19.099c0.194-0.194,0.194-0.584,0.194-0.779
			c0-0.39-0.194-0.585-0.584-0.78c-0.193-0.194-0.584-0.194-0.778-0.194c-0.391,0-0.585,0.194-0.781,0.584
			c-0.195,0.195-0.195,0.585-0.195,0.975s0.195,0.584,0.586,0.779c0.193,0,0.193,0.194,0.391,0.39c0,0.195,0,0.389,0,0.389
			c0,0.196-0.197,0.196-0.391,0.196c-0.194,0-0.391,0-0.391,0c-0.584-0.391-0.974-0.781-1.168-1.365
			c-0.194-0.585,0-1.169,0.194-1.754c0.39-0.584,0.778-0.974,1.364-1.169c0.585-0.194,1.169-0.194,1.753,0.195
			c0.586,0.39,0.977,0.779,1.171,1.364c0.194,0.585,0,1.169-0.194,1.754l-10.525,18.125h50.865l-8.38-14.421c0-0.195,0-0.39,0-0.39
			c0-0.194,0.196-0.194,0.391-0.39c0.194,0,0.194-0.194,0.39,0C173.279-71.618,173.279-71.423,173.473-71.229z"/>
		<path fill="#D32F2F" d="M181.854-86.625h0.39h0.584h0.195c0.39,0,0.78,0.195,1.17,0.39c0.389,0.195,0.779,0.39,0.974,0.78
			c0.585,0.584,0.976,1.168,1.365,1.949c0.194,0.389,0.194,0.584,0.194,0.974v0.389v0.585v0.195v0.195v0.194v1.17v0.194v0.195
			l-0.39,0.975l0.195-0.39c0,0,0,0,0-0.195v-0.195l0.194-0.39l0.195-0.779v-0.194v-0.975v-0.39c0-0.389-0.195-0.584-0.39-0.974
			c-0.195-0.584-0.78-1.365-1.365-1.753c-0.39-0.196-0.585-0.391-0.974-0.585c-0.39-0.194-0.78-0.389-1.17-0.389h-0.39h-0.195h-0.39
			h-0.194c-0.39,0-0.779,0-1.364,0.195c-0.973,0.389-1.559,0.78-2.145,1.559c-0.583,0.779-0.973,1.559-0.973,2.338
			c0,0.39,0,0.779,0,1.169c0,0.39,0.194,0.779,0.39,1.169l0.193,0.195l4.678,7.991c0,0.194,0.194,0.194,0,0.39
			c0,0.194-0.195,0.195-0.195,0.39c-0.194,0-0.39,0.194-0.39,0c-0.194,0-0.194-0.195-0.389-0.195l-4.677-7.991l-0.194-0.585
			c-0.196-0.39-0.196-0.974-0.391-1.364c0-0.585,0-0.975,0-1.56c0.194-0.974,0.585-1.948,1.169-2.728
			c0.584-0.78,1.561-1.364,2.532-1.56c0.585-0.195,0.976-0.195,1.365-0.195L181.854-86.625z"/>
		<path fill="#D32F2F" d="M182.243-71.229l4.482,7.6c0.195,0.196,0.195,0.39,0,0.585c-0.194,0.194-0.194,0.194-0.584,0.194h-61.78
			c-0.194,0-0.39,0-0.584-0.194c-0.194-0.195-0.194-0.39,0-0.585l6.626-11.498c0.194-0.195,0.194-0.585,0.194-0.779
			c0-0.39-0.194-0.585-0.585-0.78c-0.194-0.194-0.584-0.194-0.778-0.194c-0.39,0-0.584,0.194-0.78,0.584
			c-0.195,0.195-0.195,0.584-0.195,0.78c0,0.39,0.195,0.584,0.586,0.779c0.194,0,0.194,0.194,0.194,0.39c0,0.195,0,0.389,0,0.389
			c0,0.196-0.194,0.196-0.389,0.196c-0.196,0-0.392,0-0.392,0c-0.586-0.391-0.975-0.781-1.169-1.365
			c-0.194-0.585,0-1.169,0.194-1.753c0.389-0.585,0.78-0.975,1.366-1.17c0.584-0.194,1.168-0.194,1.753,0.195
			s0.975,0.779,1.17,1.364c0.194,0.585,0,1.169-0.195,1.754l-6.042,10.525h59.83l-3.896-6.821c0-0.195-0.195-0.39,0-0.39
			c0-0.194,0.194-0.194,0.194-0.39c0.195,0,0.39-0.194,0.39,0C182.048-71.618,182.243-71.423,182.243-71.229z"/>
	</g>
</g>
</svg>
