<?xml version="1.0" encoding="utf-8"?>
<!-- Generator: Adobe Illustrator 16.0.0, SVG Export Plug-In . SVG Version: 6.00 Build 0)  -->
<!DOCTYPE svg PUBLIC "-//W3C//DTD SVG 1.1//EN" "http://www.w3.org/Graphics/SVG/1.1/DTD/svg11.dtd">
<svg version="1.1" id="Layer_1" xmlns="http://www.w3.org/2000/svg" xmlns:xlink="http://www.w3.org/1999/xlink" x="0px" y="0px"
	 width="800px" height="800px" viewBox="0 0 800 800" enable-background="new 0 0 800 800" xml:space="preserve">
<path fill="#595959" d="M276.695,108.333H523.3c29.95-0.001,54.924-0.002,74.75,2.664c20.924,2.813,39.816,9.002,55,24.185
	c15.184,15.182,21.374,34.076,24.187,55.002c2.664,19.826,2.664,44.8,2.664,74.75v242.8l50.42,52.04l0.126,0.123l0.237,0.237
	l0.26,0.267l0.187,0.189l0.33,0.347l0.356,0.377l0.141,0.153l0.27,0.297l0.297,0.34l0.273,0.323c0.086,0.106,0.229,0.28,0.403,0.5
	c12.383,14.363,23.433,35.807,24.946,57.243l0.014,0.127c0.036,0.347,0.06,0.627,0.073,0.786l0.026,0.424l0.023,0.446l0.014,0.4
	l0.007,0.21l0.006,0.52l0.004,0.474v0.27l-0.004,0.37l-0.003,0.334l-0.007,0.159c0,0.351,0,0.724,0.004,1.107
	c0.006,4.359,0.013,10.633-0.157,13.316c-2.91,46.073-39.63,82.793-85.703,85.703C669.537,725,666.297,725,662.09,725H137.903
	c-4.206,0-7.445,0-10.353-0.184c-46.073-2.91-82.792-39.63-85.704-85.703c-0.168-2.663-0.159-8.883-0.151-13.233
	c0-0.417,0.001-0.813,0.001-1.193l-0.004-0.156l-0.006-0.334l-0.002-0.37v-0.27l0.003-0.474l0.007-0.52l0.005-0.21l0.014-0.4
	l0.023-0.446l0.029-0.424c0.012-0.159,0.035-0.439,0.073-0.786l0.014-0.127c1.51-21.434,12.56-42.88,24.944-57.243
	c0.173-0.224,0.316-0.396,0.404-0.5l0.273-0.323l0.295-0.34l0.269-0.297l0.142-0.153l0.355-0.377l0.329-0.347l0.187-0.189
	l0.26-0.267l0.237-0.233l0.127-0.127l50.421-52.04v-242.8c-0.001-29.949-0.002-54.923,2.664-74.75
	c2.813-20.926,9.002-39.82,24.185-55.002c15.182-15.183,34.076-21.372,55.002-24.185
	C221.772,108.332,246.746,108.333,276.695,108.333z M155.683,542.856l-50.47,52.094c-7.595,8.467-13.132,20.89-13.516,29.26
	c0,0.724-0.001,1.453-0.002,2.187c-0.001,1.776-0.003,3.57,0.002,5.243c0.004,1.24,0.012,2.313,0.025,3.17
	c0.01,0.66,0.021,1.011,0.025,1.13c1.323,20.94,18.013,37.654,38.956,38.978c1.114,0.069,2.628,0.083,7.983,0.083h522.62
	c5.356,0,6.87-0.014,7.983-0.083c20.943-1.323,37.634-18.014,38.957-38.957c-0.007,0.12,0.01-0.177,0.026-1.156
	c0.014-0.857,0.02-1.934,0.026-3.171c0.004-1.72,0.004-3.573,0-5.399c0-0.68,0-1.356,0-2.023c-0.383-8.366-5.923-20.793-13.52-29.26
	l-50.471-52.094H155.683z M629.9,492.856v-226.19c0-32.133-0.054-53.719-2.221-69.82c-2.066-15.382-5.64-21.965-9.983-26.309
	c-4.347-4.344-10.93-7.918-26.31-9.986c-16.104-2.165-37.687-2.218-69.82-2.218H278.428c-32.133,0-53.719,0.053-69.82,2.218
	c-15.382,2.068-21.965,5.642-26.31,9.986c-4.344,4.344-7.918,10.927-9.986,26.309c-2.165,16.102-2.218,37.687-2.218,69.82v226.19
	H629.9z M722.323,600.793c0.25-0.08,0.49-0.16,0.72-0.243c0.094-0.053,0.188-0.106,0.283-0.163
	C722.993,600.526,722.656,600.663,722.323,600.793z M723.873,600.863c0.197-0.1,0.391-0.193,0.58-0.28
	c0.087-0.026,0.174-0.05,0.264-0.073C724.434,600.627,724.153,600.743,723.873,600.863z M76.133,600.863
	c-0.195-0.097-0.384-0.189-0.568-0.273c-0.084-0.023-0.17-0.047-0.257-0.07C75.583,600.633,75.859,600.747,76.133,600.863z
	 M77.696,600.8c-0.346-0.133-0.691-0.273-1.036-0.417c0.1,0.058,0.197,0.114,0.294,0.167C77.188,600.637,77.437,600.72,77.696,600.8
	z M291.664,616.667c0-13.807,11.193-25,25-25H483.33c13.807,0,25,11.193,25,25s-11.193,25-25,25H316.664
	C302.856,641.667,291.664,630.474,291.664,616.667z"/>
<path fill="#595959" d="M424.997,225c0,13.807-11.193,25-25,25c-13.807,0-25-11.193-25-25s11.193-25,25-25
	C413.804,200,424.997,211.193,424.997,225z"/>
</svg>
